<?xml version="1.0" standalone="no"?><!DOCTYPE svg PUBLIC "-//W3C//DTD SVG 1.1//EN"
  "http://www.w3.org/Graphics/SVG/1.1/DTD/svg11.dtd">
<svg class="icon" viewBox="0 0 1024 1024" version="1.1" xmlns="http://www.w3.org/2000/svg"
     xmlns:xlink="http://www.w3.org/1999/xlink" width="200" height="200">
  <path
    d="M273.386 823.959c44.639-27.529 89.424-29.45 128.374-31.121 31.938-1.37 51.47 2.42 58.353 3.89 34.958 7.465 43.718 19.152 62.242 23.341 49.532 11.201 69.997-53.567 132.265-70.023 48.025-12.691 95.431-18.369 220.656 25.265 53.699-73.956 85.391-164.926 85.391-263.311 0-247.792-200.875-448.667-448.667-448.667S63.333 264.208 63.333 512c0 140.883 64.954 266.577 166.527 348.833 11.469-13.016 25.757-25.917 43.526-36.874z"
    fill="#56A858" />
  <path
    d="M443.674 353.119c0.022-0.498 0.075-0.988 0.075-1.492 0-17.384-13.524-31.573-30.619-32.712 0.484-2.704 0.778-5.474 0.778-8.318 0-25.956-21.041-46.998-46.998-46.998-24.352 0-44.375 18.521-46.758 42.246-3.194-0.766-6.51-1.216-9.938-1.216-23.484 0-42.522 19.038-42.522 42.522 0 2.032 0.191 4.013 0.467 5.968h175.515zM418.52 654.44h23.168l-52.251-89.922h19.858l-52.298-90.002-52.31 90.002h19.869l-52.263 89.922h23.181l-52.356 90.084h93.941v68.285c0 6.96 5.635 12.595 12.607 12.595h14.663c6.96 0 12.607-5.635 12.607-12.595v-68.285h93.929L418.52 654.44z"
    fill="#A6EDB3" />
  <path
    d="M684.319 520.264h42.739l-96.392-165.885H667.3l-96.477-166.032-96.499 166.032h36.653l-96.414 165.885h42.764L360.74 686.447h173.3v125.971c0 12.84 10.395 23.235 23.257 23.235h27.05c12.84 0 23.257-10.395 23.257-23.235V686.447h173.278l-96.563-166.183z"
    fill="#F7F7F7" />
  <path
    d="M875.276 775.311c-125.225-43.634-172.63-37.957-220.656-25.265-62.268 16.455-82.733 81.224-132.265 70.023-18.524-4.19-27.284-15.877-62.242-23.341-6.883-1.47-26.415-5.26-58.353-3.89-38.951 1.671-83.736 3.592-128.374 31.121-17.768 10.958-32.057 23.859-43.526 36.874 77.077 62.419 175.232 99.834 282.14 99.834 149.406 0 281.73-73.048 363.276-185.356z"
    fill="#4ECD66" />
</svg>
